<svg width="196" height="55" viewBox="0 0 196 55" fill="none" xmlns="http://www.w3.org/2000/svg">
<g filter="url(#filter0_d_1878_22823)">
<rect x="2" y="0.679932" width="192" height="48" rx="8" fill="#00995D"/>
<path d="M46.176 19.4799C47.168 19.4799 48.0267 19.6453 48.752 19.9759C49.488 20.3066 50.0533 20.7759 50.448 21.3839C50.8427 21.9919 51.04 22.7119 51.04 23.5439C51.04 24.3653 50.8427 25.0853 50.448 25.7039C50.0533 26.3119 49.488 26.7813 48.752 27.1119C48.0267 27.4319 47.168 27.5919 46.176 27.5919H43.92V30.6799H41.328V19.4799H46.176ZM46.032 25.4799C46.8107 25.4799 47.4027 25.3146 47.808 24.9839C48.2133 24.6426 48.416 24.1626 48.416 23.5439C48.416 22.9146 48.2133 22.4346 47.808 22.1039C47.4027 21.7626 46.8107 21.5919 46.032 21.5919H43.92V25.4799H46.032ZM55.0985 23.2079C55.3972 22.7919 55.7972 22.4773 56.2985 22.2639C56.8105 22.0506 57.3972 21.9439 58.0585 21.9439V24.2479C57.7812 24.2266 57.5945 24.2159 57.4985 24.2159C56.7838 24.2159 56.2238 24.4186 55.8185 24.8239C55.4132 25.2186 55.2105 25.8159 55.2105 26.6159V30.6799H52.7145V22.0719H55.0985V23.2079ZM63.5605 30.8079C62.6538 30.8079 61.8378 30.6213 61.1125 30.2479C60.3978 29.8639 59.8378 29.3359 59.4325 28.6639C59.0272 27.9919 58.8245 27.2293 58.8245 26.3759C58.8245 25.5226 59.0272 24.7599 59.4325 24.0879C59.8378 23.4159 60.3978 22.8933 61.1125 22.5199C61.8378 22.1359 62.6538 21.9439 63.5605 21.9439C64.4672 21.9439 65.2778 22.1359 65.9925 22.5199C66.7072 22.8933 67.2672 23.4159 67.6725 24.0879C68.0778 24.7599 68.2805 25.5226 68.2805 26.3759C68.2805 27.2293 68.0778 27.9919 67.6725 28.6639C67.2672 29.3359 66.7072 29.8639 65.9925 30.2479C65.2778 30.6213 64.4672 30.8079 63.5605 30.8079ZM63.5605 28.7599C64.2005 28.7599 64.7232 28.5466 65.1285 28.1199C65.5445 27.6826 65.7525 27.1013 65.7525 26.3759C65.7525 25.6506 65.5445 25.0746 65.1285 24.6479C64.7232 24.2106 64.2005 23.9919 63.5605 23.9919C62.9205 23.9919 62.3925 24.2106 61.9765 24.6479C61.5605 25.0746 61.3525 25.6506 61.3525 26.3759C61.3525 27.1013 61.5605 27.6826 61.9765 28.1199C62.3925 28.5466 62.9205 28.7599 63.5605 28.7599ZM72.8449 30.8079C72.1302 30.8079 71.4315 30.7226 70.7489 30.5519C70.0662 30.3706 69.5222 30.1466 69.1169 29.8799L69.9489 28.0879C70.3329 28.3333 70.7969 28.5359 71.3409 28.6959C71.8849 28.8453 72.4182 28.9199 72.9409 28.9199C73.9969 28.9199 74.5249 28.6586 74.5249 28.1359C74.5249 27.8906 74.3809 27.7146 74.0929 27.6079C73.8049 27.5013 73.3622 27.4106 72.7649 27.3359C72.0609 27.2293 71.4795 27.1066 71.0209 26.9679C70.5622 26.8293 70.1622 26.5839 69.8209 26.2319C69.4902 25.8799 69.3249 25.3786 69.3249 24.7279C69.3249 24.1839 69.4795 23.7039 69.7889 23.2879C70.1089 22.8613 70.5675 22.5306 71.1649 22.2959C71.7729 22.0613 72.4875 21.9439 73.3089 21.9439C73.9169 21.9439 74.5195 22.0133 75.1169 22.1519C75.7249 22.2799 76.2262 22.4613 76.6209 22.6959L75.7889 24.4719C75.0315 24.0453 74.2049 23.8319 73.3089 23.8319C72.7755 23.8319 72.3755 23.9066 72.1089 24.0559C71.8422 24.2053 71.7089 24.3973 71.7089 24.6319C71.7089 24.8986 71.8529 25.0853 72.1409 25.1919C72.4289 25.2986 72.8875 25.3999 73.5169 25.4959C74.2209 25.6133 74.7969 25.7413 75.2449 25.8799C75.6929 26.0079 76.0822 26.2479 76.4129 26.5999C76.7435 26.9519 76.9089 27.4426 76.9089 28.0719C76.9089 28.6053 76.7489 29.0799 76.4289 29.4959C76.1089 29.9119 75.6395 30.2373 75.0209 30.4719C74.4129 30.6959 73.6875 30.8079 72.8449 30.8079ZM81.3449 30.8079C80.6302 30.8079 79.9315 30.7226 79.2489 30.5519C78.5662 30.3706 78.0222 30.1466 77.6169 29.8799L78.4489 28.0879C78.8329 28.3333 79.2969 28.5359 79.8409 28.6959C80.3849 28.8453 80.9182 28.9199 81.4409 28.9199C82.4969 28.9199 83.0249 28.6586 83.0249 28.1359C83.0249 27.8906 82.8809 27.7146 82.5929 27.6079C82.3049 27.5013 81.8622 27.4106 81.2649 27.3359C80.5609 27.2293 79.9795 27.1066 79.5209 26.9679C79.0622 26.8293 78.6622 26.5839 78.3209 26.2319C77.9902 25.8799 77.8249 25.3786 77.8249 24.7279C77.8249 24.1839 77.9795 23.7039 78.2889 23.2879C78.6089 22.8613 79.0675 22.5306 79.6649 22.2959C80.2729 22.0613 80.9875 21.9439 81.8089 21.9439C82.4169 21.9439 83.0195 22.0133 83.6169 22.1519C84.2249 22.2799 84.7262 22.4613 85.1209 22.6959L84.2889 24.4719C83.5315 24.0453 82.7049 23.8319 81.8089 23.8319C81.2755 23.8319 80.8755 23.9066 80.6089 24.0559C80.3422 24.2053 80.2089 24.3973 80.2089 24.6319C80.2089 24.8986 80.3529 25.0853 80.6409 25.1919C80.9289 25.2986 81.3875 25.3999 82.0169 25.4959C82.7209 25.6133 83.2969 25.7413 83.7449 25.8799C84.1929 26.0079 84.5822 26.2479 84.9129 26.5999C85.2435 26.9519 85.4089 27.4426 85.4089 28.0719C85.4089 28.6053 85.2489 29.0799 84.9289 29.4959C84.6089 29.9119 84.1395 30.2373 83.5209 30.4719C82.9129 30.6959 82.1875 30.8079 81.3449 30.8079ZM95.3809 26.4079C95.3809 26.4399 95.3649 26.6639 95.3329 27.0799H88.8209C88.9382 27.6133 89.2155 28.0346 89.6529 28.3439C90.0902 28.6533 90.6342 28.8079 91.2849 28.8079C91.7329 28.8079 92.1275 28.7439 92.4689 28.6159C92.8209 28.4773 93.1462 28.2639 93.4449 27.9759L94.7729 29.4159C93.9622 30.3439 92.7782 30.8079 91.2209 30.8079C90.2502 30.8079 89.3915 30.6213 88.6449 30.2479C87.8982 29.8639 87.3222 29.3359 86.9169 28.6639C86.5115 27.9919 86.3089 27.2293 86.3089 26.3759C86.3089 25.5333 86.5062 24.7759 86.9009 24.1039C87.3062 23.4213 87.8555 22.8933 88.5489 22.5199C89.2529 22.1359 90.0369 21.9439 90.9009 21.9439C91.7435 21.9439 92.5062 22.1253 93.1889 22.4879C93.8715 22.8506 94.4049 23.3733 94.7889 24.0559C95.1835 24.7279 95.3809 25.5119 95.3809 26.4079ZM90.9169 23.8319C90.3515 23.8319 89.8769 23.9919 89.4929 24.3119C89.1089 24.6319 88.8742 25.0693 88.7889 25.6239H93.0289C92.9435 25.0799 92.7089 24.6479 92.3249 24.3279C91.9409 23.9973 91.4715 23.8319 90.9169 23.8319ZM105.923 22.0719V29.2399C105.923 30.8186 105.512 31.9919 104.691 32.7599C103.869 33.5279 102.669 33.9119 101.091 33.9119C100.259 33.9119 99.4693 33.8106 98.7226 33.6079C97.976 33.4053 97.3573 33.1119 96.8666 32.7279L97.8586 30.9359C98.2213 31.2346 98.68 31.4693 99.2346 31.6399C99.7893 31.8213 100.344 31.9119 100.899 31.9119C101.763 31.9119 102.397 31.7146 102.803 31.3199C103.219 30.9359 103.427 30.3493 103.427 29.5599V29.1919C102.776 29.9066 101.869 30.2639 100.707 30.2639C99.9173 30.2639 99.192 30.0933 98.5306 29.7519C97.88 29.3999 97.3626 28.9093 96.9786 28.2799C96.5946 27.6506 96.4026 26.9253 96.4026 26.1039C96.4026 25.2826 96.5946 24.5573 96.9786 23.9279C97.3626 23.2986 97.88 22.8133 98.5306 22.4719C99.192 22.1199 99.9173 21.9439 100.707 21.9439C101.955 21.9439 102.904 22.3546 103.555 23.1759V22.0719H105.923ZM101.203 28.2159C101.864 28.2159 102.403 28.0239 102.819 27.6399C103.245 27.2453 103.459 26.7333 103.459 26.1039C103.459 25.4746 103.245 24.9679 102.819 24.5839C102.403 24.1893 101.864 23.9919 101.203 23.9919C100.541 23.9919 99.9973 24.1893 99.5706 24.5839C99.144 24.9679 98.9306 25.4746 98.9306 26.1039C98.9306 26.7333 99.144 27.2453 99.5706 27.6399C99.9973 28.0239 100.541 28.2159 101.203 28.2159ZM116.918 22.0719V30.6799H114.55V29.6559C114.219 30.0293 113.824 30.3173 113.366 30.5199C112.907 30.7119 112.411 30.8079 111.878 30.8079C110.747 30.8079 109.851 30.4826 109.19 29.8319C108.528 29.1813 108.198 28.2159 108.198 26.9359V22.0719H110.694V26.5679C110.694 27.9546 111.275 28.6479 112.438 28.6479C113.035 28.6479 113.515 28.4559 113.878 28.0719C114.24 27.6773 114.422 27.0959 114.422 26.3279V22.0719H116.918ZM119.23 22.0719H121.726V30.6799H119.23V22.0719ZM120.478 20.8719C120.019 20.8719 119.646 20.7386 119.358 20.4719C119.07 20.2053 118.926 19.8746 118.926 19.4799C118.926 19.0853 119.07 18.7546 119.358 18.4879C119.646 18.2213 120.019 18.0879 120.478 18.0879C120.937 18.0879 121.31 18.2159 121.598 18.4719C121.886 18.7279 122.03 19.0479 122.03 19.4319C122.03 19.8479 121.886 20.1946 121.598 20.4719C121.31 20.7386 120.937 20.8719 120.478 20.8719ZM126.427 23.2079C126.725 22.7919 127.125 22.4773 127.627 22.2639C128.139 22.0506 128.725 21.9439 129.387 21.9439V24.2479C129.109 24.2266 128.923 24.2159 128.827 24.2159C128.112 24.2159 127.552 24.4186 127.147 24.8239C126.741 25.2186 126.539 25.8159 126.539 26.6159V30.6799H124.043V22.0719H126.427V23.2079Z" fill="white"/>
<path fill-rule="evenodd" clip-rule="evenodd" d="M149 25.6799H160.865L157.232 30.0399C156.878 30.4639 156.936 31.0949 157.36 31.4479C157.785 31.8019 158.415 31.7439 158.769 31.3199L163.769 25.3199C163.808 25.2729 163.827 25.2179 163.856 25.1659C163.88 25.1239 163.909 25.0879 163.927 25.0419C163.972 24.9269 163.999 24.8059 163.999 24.6839C163.999 24.6829 164 24.6809 164 24.6799C164 24.6789 163.999 24.6769 163.999 24.6759C163.999 24.5539 163.972 24.4329 163.927 24.3179C163.909 24.2719 163.88 24.2359 163.856 24.1939C163.827 24.1419 163.808 24.0869 163.769 24.0399L158.769 18.0399C158.57 17.8029 158.286 17.6799 158 17.6799C157.774 17.6799 157.547 17.7559 157.36 17.9119C156.936 18.2649 156.878 18.8959 157.232 19.3199L160.865 23.6799H149C148.448 23.6799 148 24.1279 148 24.6799C148 25.2319 148.448 25.6799 149 25.6799Z" fill="white"/>
</g>
<defs>
<filter id="filter0_d_1878_22823" x="0" y="0.679932" width="196" height="54" filterUnits="userSpaceOnUse" color-interpolation-filters="sRGB">
<feFlood flood-opacity="0" result="BackgroundImageFix"/>
<feColorMatrix in="SourceAlpha" type="matrix" values="0 0 0 0 0 0 0 0 0 0 0 0 0 0 0 0 0 0 127 0" result="hardAlpha"/>
<feOffset dy="4"/>
<feGaussianBlur stdDeviation="1"/>
<feColorMatrix type="matrix" values="0 0 0 0 0 0 0 0 0 0 0 0 0 0 0 0 0 0 0.15 0"/>
<feBlend mode="normal" in2="BackgroundImageFix" result="effect1_dropShadow_1878_22823"/>
<feBlend mode="normal" in="SourceGraphic" in2="effect1_dropShadow_1878_22823" result="shape"/>
</filter>
</defs>
</svg>
