<svg width="379" height="224" viewBox="0 0 379 224" fill="none" xmlns="http://www.w3.org/2000/svg">
<g filter="url(#filter0_d_1259_1891)">
<rect x="50" y="46" width="279" height="124" rx="16" fill="white"/>
<rect width="279" height="58" transform="translate(50 46)" fill="url(#paint0_linear_1259_1891)"/>
<path d="M73.3921 68.4263C73.4294 68.4916 73.4481 68.5663 73.4481 68.6503C73.4481 68.7996 73.3921 68.9303 73.2801 69.0423C73.1774 69.145 73.0514 69.1963 72.9021 69.1963C72.6594 69.1963 72.4868 69.0843 72.3841 68.8603L71.4461 66.5923H66.0281L65.0901 68.8603C65.0154 69.0843 64.8474 69.1963 64.5861 69.1963C64.4274 69.1963 64.2968 69.145 64.1941 69.0423C64.1008 68.9303 64.0541 68.7996 64.0541 68.6503C64.0541 68.557 64.0681 68.4776 64.0961 68.4123L68.2121 58.6403C68.3148 58.3883 68.4921 58.2623 68.7441 58.2623C68.9961 58.2623 69.1688 58.3883 69.2621 58.6403L73.3921 68.4263ZM66.4201 65.6543H71.0681L68.7441 60.0403L66.4201 65.6543ZM82.1465 61.9443C82.1558 61.9723 82.1605 62.0143 82.1605 62.0703V65.3603C82.1605 66.0883 81.9878 66.751 81.6425 67.3483C81.3065 67.9456 80.8398 68.417 80.2425 68.7623C79.6545 69.0983 78.9965 69.2663 78.2685 69.2663C77.5405 69.2663 76.8778 69.0983 76.2805 68.7623C75.6925 68.417 75.2258 67.9456 74.8805 67.3483C74.5445 66.751 74.3765 66.0883 74.3765 65.3603C74.3765 64.6323 74.5398 63.9743 74.8665 63.3863C75.2025 62.789 75.6551 62.3223 76.2245 61.9863C76.8031 61.641 77.4471 61.4683 78.1565 61.4683C78.7631 61.4683 79.3185 61.599 79.8225 61.8603C80.3265 62.1123 80.7418 62.4623 81.0685 62.9103V58.8083C81.0685 58.6496 81.1198 58.519 81.2225 58.4163C81.3251 58.3136 81.4558 58.2623 81.6145 58.2623C81.7731 58.2623 81.8991 58.3136 81.9925 58.4163C82.0951 58.519 82.1465 58.6496 82.1465 58.8083V61.9443ZM78.2685 68.2863C78.8005 68.2863 79.2811 68.1603 79.7105 67.9083C80.1398 67.647 80.4758 67.297 80.7185 66.8583C80.9705 66.4103 81.0965 65.911 81.0965 65.3603C81.0965 65.2016 81.0918 65.085 81.0825 65.0103C81.0731 64.9916 81.0685 64.9683 81.0685 64.9403C80.9751 64.2123 80.6671 63.615 80.1445 63.1483C79.6311 62.6816 79.0058 62.4483 78.2685 62.4483C77.7365 62.4483 77.2511 62.5743 76.8125 62.8263C76.3831 63.0783 76.0425 63.4283 75.7905 63.8763C75.5478 64.315 75.4265 64.8096 75.4265 65.3603C75.4265 65.911 75.5478 66.4103 75.7905 66.8583C76.0425 67.297 76.3831 67.647 76.8125 67.9083C77.2511 68.1603 77.7365 68.2863 78.2685 68.2863ZM92.7449 61.4543C93.2956 61.4543 93.7809 61.585 94.2009 61.8463C94.6302 62.1076 94.9616 62.481 95.1949 62.9663C95.4376 63.4423 95.5589 63.9976 95.5589 64.6323V68.6643C95.5589 68.823 95.5076 68.9536 95.4049 69.0563C95.3116 69.1496 95.1856 69.1963 95.0269 69.1963C94.8682 69.1963 94.7376 69.1496 94.6349 69.0563C94.5322 68.9536 94.4809 68.823 94.4809 68.6643V64.6323C94.4809 63.9696 94.3082 63.447 93.9629 63.0643C93.6269 62.6723 93.1836 62.4763 92.6329 62.4763C92.0449 62.4763 91.5689 62.6723 91.2049 63.0643C90.8409 63.4563 90.6636 63.9696 90.6729 64.6043V64.6323V68.6643C90.6729 68.823 90.6216 68.9536 90.5189 69.0563C90.4256 69.1496 90.2996 69.1963 90.1409 69.1963C89.9822 69.1963 89.8516 69.1496 89.7489 69.0563C89.6462 68.9536 89.5949 68.823 89.5949 68.6643V64.6323C89.5949 63.9696 89.4222 63.447 89.0769 63.0643C88.7409 62.6723 88.2976 62.4763 87.7469 62.4763C87.1682 62.4763 86.6922 62.6676 86.3189 63.0503C85.9456 63.433 85.7589 63.923 85.7589 64.5203V68.6643C85.7589 68.823 85.7076 68.9536 85.6049 69.0563C85.5116 69.1496 85.3856 69.1963 85.2269 69.1963C85.0682 69.1963 84.9376 69.1496 84.8349 69.0563C84.7322 68.9536 84.6809 68.823 84.6809 68.6643V62.0843C84.6809 61.9256 84.7322 61.795 84.8349 61.6923C84.9376 61.5896 85.0682 61.5383 85.2269 61.5383C85.3856 61.5383 85.5116 61.5896 85.6049 61.6923C85.7076 61.795 85.7589 61.9256 85.7589 62.0843V62.3923C86.0202 62.0936 86.3282 61.865 86.6829 61.7063C87.0469 61.5383 87.4389 61.4543 87.8589 61.4543C88.3722 61.4543 88.8342 61.571 89.2449 61.8043C89.6556 62.0376 89.9822 62.3643 90.2249 62.7843C90.4956 62.3643 90.8456 62.0376 91.2749 61.8043C91.7136 61.571 92.2036 61.4543 92.7449 61.4543ZM98.7126 69.1963C98.554 69.1963 98.4233 69.145 98.3206 69.0423C98.218 68.9396 98.1666 68.809 98.1666 68.6503V62.0843C98.1666 61.9256 98.218 61.795 98.3206 61.6923C98.4233 61.5896 98.554 61.5383 98.7126 61.5383C98.8713 61.5383 98.9973 61.5896 99.0906 61.6923C99.1933 61.795 99.2446 61.9256 99.2446 62.0843V68.6503C99.2446 68.809 99.1933 68.9396 99.0906 69.0423C98.9973 69.145 98.8713 69.1963 98.7126 69.1963ZM98.6986 60.0823C98.484 60.0823 98.302 60.0076 98.1526 59.8583C98.0126 59.709 97.9426 59.527 97.9426 59.3123C97.9426 59.0883 98.0173 58.9063 98.1666 58.7663C98.316 58.6263 98.498 58.5563 98.7126 58.5563C98.918 58.5563 99.0953 58.6263 99.2446 58.7663C99.394 58.9063 99.4686 59.0883 99.4686 59.3123C99.4686 59.527 99.394 59.709 99.2446 59.8583C99.0953 60.0076 98.9133 60.0823 98.6986 60.0823ZM105.615 61.4543C106.278 61.4543 106.871 61.5943 107.393 61.8743C107.925 62.1543 108.341 62.565 108.639 63.1063C108.938 63.6383 109.087 64.2776 109.087 65.0243V68.6643C109.087 68.8136 109.036 68.9396 108.933 69.0423C108.831 69.145 108.705 69.1963 108.555 69.1963C108.397 69.1963 108.266 69.145 108.163 69.0423C108.061 68.9396 108.009 68.8136 108.009 68.6643V65.0243C108.009 64.1936 107.776 63.5636 107.309 63.1343C106.852 62.6956 106.25 62.4763 105.503 62.4763C105.046 62.4763 104.631 62.565 104.257 62.7423C103.893 62.9196 103.604 63.167 103.389 63.4843C103.175 63.7923 103.067 64.1376 103.067 64.5203V68.6643C103.067 68.823 103.016 68.9536 102.913 69.0563C102.82 69.1496 102.694 69.1963 102.535 69.1963C102.377 69.1963 102.246 69.1496 102.143 69.0563C102.041 68.9536 101.989 68.823 101.989 68.6643V62.0843C101.989 61.9256 102.041 61.795 102.143 61.6923C102.246 61.5896 102.377 61.5383 102.535 61.5383C102.694 61.5383 102.82 61.5896 102.913 61.6923C103.016 61.795 103.067 61.9256 103.067 62.0843V62.5603C103.375 62.215 103.749 61.9443 104.187 61.7483C104.626 61.5523 105.102 61.4543 105.615 61.4543Z" fill="black"/>
<path d="M69.8841 81.9V85.692C69.3561 84.876 68.4921 84.444 67.4841 84.444C65.6841 84.444 64.3401 85.74 64.3401 87.648C64.3401 89.556 65.6841 90.864 67.4841 90.864C68.5281 90.864 69.4041 90.408 69.9201 89.556V90.804H70.7361V81.9H69.8841ZM67.5561 90.108C66.2121 90.108 65.2041 89.124 65.2041 87.648C65.2041 86.172 66.2121 85.188 67.5561 85.188C68.8881 85.188 69.8961 86.172 69.8961 87.648C69.8961 89.124 68.8881 90.108 67.5561 90.108ZM75.3169 84.444C74.3209 84.444 73.3849 84.756 72.7489 85.296L73.1329 85.932C73.6489 85.476 74.4169 85.188 75.2329 85.188C76.4089 85.188 77.0209 85.776 77.0209 86.856V87.24H75.0169C73.2049 87.24 72.5809 88.056 72.5809 89.028C72.5809 90.12 73.4569 90.864 74.8849 90.864C75.9289 90.864 76.6729 90.468 77.0569 89.82V90.804H77.8729V86.892C77.8729 85.26 76.9489 84.444 75.3169 84.444ZM75.0169 90.192C74.0089 90.192 73.4209 89.736 73.4209 89.004C73.4209 88.356 73.8169 87.876 75.0409 87.876H77.0209V88.908C76.6849 89.736 75.9769 90.192 75.0169 90.192ZM83.403 84.444C82.311 84.444 81.459 84.888 81.003 85.656V84.492H80.187V90.804H81.039V87.492C81.039 86.052 81.891 85.212 83.247 85.212C84.447 85.212 85.143 85.896 85.143 87.228V90.804H85.995V87.144C85.995 85.332 84.939 84.444 83.403 84.444ZM88.7401 83.112C89.1001 83.112 89.3641 82.836 89.3641 82.488C89.3641 82.164 89.0881 81.9 88.7401 81.9C88.3921 81.9 88.1161 82.176 88.1161 82.5C88.1161 82.836 88.3921 83.112 88.7401 83.112ZM88.3081 90.804H89.1601V84.492H88.3081V90.804ZM97.0388 87.648C97.0388 85.752 95.7548 84.444 93.9788 84.444C92.2028 84.444 90.8948 85.776 90.8948 87.648C90.8948 89.52 92.2388 90.864 94.2068 90.864C95.2028 90.864 96.0788 90.504 96.6428 89.832L96.1628 89.28C95.6828 89.832 94.9988 90.108 94.2308 90.108C92.8508 90.108 91.8428 89.232 91.7468 87.912H97.0268C97.0268 87.816 97.0388 87.72 97.0388 87.648ZM93.9788 85.176C95.2148 85.176 96.1148 86.04 96.2228 87.276H91.7468C91.8548 86.04 92.7548 85.176 93.9788 85.176ZM98.773 90.804H99.625V81.9H98.773V90.804ZM102.08 90.864C102.428 90.864 102.728 90.576 102.728 90.204C102.728 89.832 102.428 89.556 102.08 89.556C101.732 89.556 101.444 89.832 101.444 90.204C101.444 90.576 101.732 90.864 102.08 90.864ZM112.612 84.492L110.608 89.856L108.592 84.492H107.86L105.832 89.856L103.852 84.492H103.036L105.412 90.804H106.216L108.208 85.632L110.2 90.804H111.004L113.392 84.492H112.612ZM120.008 87.648C120.008 85.752 118.724 84.444 116.948 84.444C115.172 84.444 113.864 85.776 113.864 87.648C113.864 89.52 115.208 90.864 117.176 90.864C118.172 90.864 119.048 90.504 119.612 89.832L119.132 89.28C118.652 89.832 117.968 90.108 117.2 90.108C115.82 90.108 114.812 89.232 114.716 87.912H119.996C119.996 87.816 120.008 87.72 120.008 87.648ZM116.948 85.176C118.184 85.176 119.084 86.04 119.192 87.276H114.716C114.824 86.04 115.724 85.176 116.948 85.176ZM126.558 90.804L124.038 87.564L126.414 84.492H125.478L123.582 86.964L121.686 84.492H120.726L123.102 87.564L120.606 90.804H121.566L123.582 88.164L125.586 90.804H126.558ZM133.261 87.648C133.261 85.752 131.977 84.444 130.201 84.444C128.425 84.444 127.117 85.776 127.117 87.648C127.117 89.52 128.461 90.864 130.429 90.864C131.425 90.864 132.301 90.504 132.865 89.832L132.385 89.28C131.905 89.832 131.221 90.108 130.453 90.108C129.073 90.108 128.065 89.232 127.969 87.912H133.249C133.249 87.816 133.261 87.72 133.261 87.648ZM130.201 85.176C131.437 85.176 132.337 86.04 132.445 87.276H127.969C128.077 86.04 128.977 85.176 130.201 85.176ZM135.812 85.728V84.492H134.996V90.804H135.848V87.588C135.848 86.1 136.652 85.26 137.972 85.26C138.032 85.26 138.104 85.272 138.176 85.272V84.444C137.012 84.444 136.208 84.888 135.812 85.728ZM144.536 82.332C141.224 82.332 138.932 84.564 138.932 87.756C138.932 90.936 141.188 93.204 144.488 93.204C145.292 93.204 146.276 93.024 146.996 92.652L146.792 92.064C146.096 92.424 145.208 92.592 144.488 92.592C141.572 92.592 139.592 90.6 139.592 87.756C139.592 84.912 141.596 82.944 144.536 82.944C147.44 82.944 149.468 84.816 149.468 87.636C149.468 89.256 148.988 90.18 148.244 90.18C147.836 90.18 147.5 89.94 147.5 89.268V84.72H146.72V85.932C146.228 85.128 145.376 84.672 144.344 84.672C142.64 84.672 141.368 85.956 141.368 87.756C141.368 89.568 142.64 90.864 144.344 90.864C145.4 90.864 146.264 90.384 146.744 89.556C146.792 90.384 147.32 90.864 148.1 90.864C149.336 90.864 150.092 89.664 150.092 87.624C150.092 84.48 147.788 82.332 144.536 82.332ZM144.452 90.168C143.12 90.168 142.16 89.196 142.16 87.756C142.16 86.316 143.12 85.368 144.452 85.368C145.748 85.368 146.732 86.304 146.732 87.756C146.732 89.22 145.748 90.168 144.452 90.168ZM156.922 84.492V85.704C156.394 84.876 155.482 84.444 154.426 84.444C152.626 84.444 151.258 85.68 151.258 87.492C151.258 89.304 152.626 90.564 154.426 90.564C155.458 90.564 156.358 90.144 156.886 89.34V90.144C156.886 91.704 156.154 92.436 154.558 92.436C153.586 92.436 152.674 92.112 152.074 91.572L151.642 92.22C152.302 92.844 153.43 93.192 154.582 93.192C156.67 93.192 157.738 92.208 157.738 90.036V84.492H156.922ZM154.51 89.808C153.118 89.808 152.122 88.86 152.122 87.492C152.122 86.124 153.118 85.188 154.51 85.188C155.902 85.188 156.91 86.124 156.91 87.492C156.91 88.86 155.902 89.808 154.51 89.808ZM167.993 84.444C166.853 84.444 165.953 84.96 165.497 85.776C165.113 84.888 164.297 84.444 163.253 84.444C162.197 84.444 161.381 84.888 160.937 85.644V84.492H160.121V90.804H160.973V87.492C160.973 86.052 161.801 85.212 163.085 85.212C164.237 85.212 164.909 85.896 164.909 87.228V90.804H165.761V87.492C165.761 86.052 166.577 85.212 167.873 85.212C169.013 85.212 169.685 85.896 169.685 87.228V90.804H170.537V87.144C170.537 85.332 169.529 84.444 167.993 84.444ZM175.055 84.444C174.059 84.444 173.123 84.756 172.487 85.296L172.871 85.932C173.387 85.476 174.155 85.188 174.971 85.188C176.147 85.188 176.759 85.776 176.759 86.856V87.24H174.755C172.943 87.24 172.319 88.056 172.319 89.028C172.319 90.12 173.195 90.864 174.623 90.864C175.667 90.864 176.411 90.468 176.795 89.82V90.804H177.611V86.892C177.611 85.26 176.687 84.444 175.055 84.444ZM174.755 90.192C173.747 90.192 173.159 89.736 173.159 89.004C173.159 88.356 173.555 87.876 174.779 87.876H176.759V88.908C176.423 89.736 175.715 90.192 174.755 90.192ZM180.357 83.112C180.717 83.112 180.981 82.836 180.981 82.488C180.981 82.164 180.705 81.9 180.357 81.9C180.009 81.9 179.733 82.176 179.733 82.5C179.733 82.836 180.009 83.112 180.357 83.112ZM179.925 90.804H180.777V84.492H179.925V90.804ZM183.148 90.804H184V81.9H183.148V90.804ZM186.455 90.864C186.803 90.864 187.103 90.576 187.103 90.204C187.103 89.832 186.803 89.556 186.455 89.556C186.107 89.556 185.819 89.832 185.819 90.204C185.819 90.576 186.107 90.864 186.455 90.864ZM191.354 90.864C192.422 90.864 193.322 90.432 193.826 89.616L193.19 89.184C192.758 89.82 192.086 90.108 191.354 90.108C189.974 90.108 188.966 89.136 188.966 87.648C188.966 86.172 189.974 85.188 191.354 85.188C192.086 85.188 192.758 85.488 193.19 86.124L193.826 85.692C193.322 84.864 192.422 84.444 191.354 84.444C189.47 84.444 188.102 85.764 188.102 87.648C188.102 89.532 189.47 90.864 191.354 90.864ZM197.974 90.864C199.822 90.864 201.178 89.52 201.178 87.648C201.178 85.776 199.822 84.444 197.974 84.444C196.126 84.444 194.758 85.776 194.758 87.648C194.758 89.52 196.126 90.864 197.974 90.864ZM197.974 90.108C196.63 90.108 195.622 89.124 195.622 87.648C195.622 86.172 196.63 85.188 197.974 85.188C199.318 85.188 200.314 86.172 200.314 87.648C200.314 89.124 199.318 90.108 197.974 90.108ZM210.789 84.444C209.649 84.444 208.749 84.96 208.293 85.776C207.909 84.888 207.093 84.444 206.049 84.444C204.993 84.444 204.177 84.888 203.733 85.644V84.492H202.917V90.804H203.769V87.492C203.769 86.052 204.597 85.212 205.881 85.212C207.033 85.212 207.705 85.896 207.705 87.228V90.804H208.557V87.492C208.557 86.052 209.373 85.212 210.669 85.212C211.809 85.212 212.481 85.896 212.481 87.228V90.804H213.333V87.144C213.333 85.332 212.325 84.444 210.789 84.444Z" fill="black"/>
<path d="M97.76 137.64C96.8733 137.64 96.0847 137.453 95.394 137.08C94.7127 136.697 94.2227 136.184 93.924 135.54C93.8867 135.475 93.868 135.4 93.868 135.316C93.868 135.185 93.9147 135.078 94.008 134.994C94.1107 134.901 94.246 134.854 94.414 134.854C94.526 134.854 94.6287 134.887 94.722 134.952C94.8247 135.008 94.8993 135.092 94.946 135.204C95.1607 135.624 95.5153 135.965 96.01 136.226C96.514 136.478 97.0973 136.604 97.76 136.604C98.5253 136.604 99.1413 136.422 99.608 136.058C100.075 135.685 100.308 135.167 100.308 134.504C100.308 133.916 100.089 133.421 99.65 133.02C99.2207 132.619 98.572 132.362 97.704 132.25C96.6213 132.119 95.7673 131.783 95.142 131.242C94.526 130.691 94.218 130.019 94.218 129.226C94.218 128.666 94.3673 128.176 94.666 127.756C94.974 127.327 95.394 127 95.926 126.776C96.4673 126.543 97.0787 126.426 97.76 126.426C98.4973 126.426 99.146 126.589 99.706 126.916C100.266 127.243 100.705 127.667 101.022 128.19C101.087 128.293 101.12 128.405 101.12 128.526C101.12 128.703 101.036 128.843 100.868 128.946C100.793 128.983 100.709 129.002 100.616 129.002C100.513 129.002 100.415 128.979 100.322 128.932C100.238 128.876 100.168 128.801 100.112 128.708C99.5893 127.887 98.8007 127.471 97.746 127.462C96.99 127.462 96.3927 127.621 95.954 127.938C95.5153 128.255 95.296 128.708 95.296 129.296C95.296 130.388 96.178 131.051 97.942 131.284C99.0993 131.452 99.9627 131.807 100.532 132.348C101.101 132.889 101.386 133.603 101.386 134.49C101.386 135.143 101.227 135.708 100.91 136.184C100.593 136.66 100.159 137.024 99.608 137.276C99.0573 137.519 98.4413 137.64 97.76 137.64ZM107.016 129.772C107.744 129.772 108.402 129.945 108.99 130.29C109.587 130.626 110.054 131.093 110.39 131.69C110.735 132.287 110.908 132.95 110.908 133.678V136.968C110.908 137.117 110.856 137.243 110.754 137.346C110.651 137.449 110.52 137.5 110.362 137.5C110.203 137.5 110.072 137.453 109.97 137.36C109.867 137.257 109.816 137.127 109.816 136.968V136.128C109.489 136.576 109.074 136.931 108.57 137.192C108.066 137.444 107.51 137.57 106.904 137.57C106.194 137.57 105.55 137.402 104.972 137.066C104.402 136.721 103.95 136.254 103.614 135.666C103.287 135.069 103.124 134.406 103.124 133.678C103.124 132.95 103.292 132.287 103.628 131.69C103.973 131.093 104.44 130.626 105.028 130.29C105.625 129.945 106.288 129.772 107.016 129.772ZM107.016 136.59C107.548 136.59 108.028 136.464 108.458 136.212C108.887 135.96 109.223 135.615 109.466 135.176C109.718 134.728 109.844 134.229 109.844 133.678C109.844 133.127 109.718 132.633 109.466 132.194C109.223 131.746 108.887 131.396 108.458 131.144C108.028 130.883 107.548 130.752 107.016 130.752C106.484 130.752 105.998 130.883 105.56 131.144C105.13 131.396 104.79 131.746 104.538 132.194C104.295 132.633 104.174 133.127 104.174 133.678C104.174 134.229 104.295 134.728 104.538 135.176C104.79 135.615 105.13 135.96 105.56 136.212C105.998 136.464 106.484 136.59 107.016 136.59ZM113.774 137.5C113.615 137.5 113.485 137.449 113.382 137.346C113.279 137.243 113.228 137.113 113.228 136.954V130.388C113.228 130.229 113.279 130.099 113.382 129.996C113.485 129.893 113.615 129.842 113.774 129.842C113.933 129.842 114.059 129.893 114.152 129.996C114.255 130.099 114.306 130.229 114.306 130.388V136.954C114.306 137.113 114.255 137.243 114.152 137.346C114.059 137.449 113.933 137.5 113.774 137.5ZM113.76 128.386C113.545 128.386 113.363 128.311 113.214 128.162C113.074 128.013 113.004 127.831 113.004 127.616C113.004 127.392 113.079 127.21 113.228 127.07C113.377 126.93 113.559 126.86 113.774 126.86C113.979 126.86 114.157 126.93 114.306 127.07C114.455 127.21 114.53 127.392 114.53 127.616C114.53 127.831 114.455 128.013 114.306 128.162C114.157 128.311 113.975 128.386 113.76 128.386ZM120.509 129.758C120.901 129.758 121.209 129.809 121.433 129.912C121.666 130.015 121.783 130.159 121.783 130.346C121.783 130.402 121.778 130.444 121.769 130.472C121.732 130.603 121.671 130.691 121.587 130.738C121.512 130.785 121.405 130.808 121.265 130.808C121.181 130.808 121.036 130.799 120.831 130.78C120.756 130.771 120.644 130.766 120.495 130.766C119.795 130.766 119.221 130.953 118.773 131.326C118.334 131.699 118.115 132.185 118.115 132.782V136.968C118.115 137.136 118.068 137.267 117.975 137.36C117.882 137.453 117.751 137.5 117.583 137.5C117.415 137.5 117.284 137.453 117.191 137.36C117.098 137.267 117.051 137.136 117.051 136.968V130.374C117.051 130.206 117.098 130.075 117.191 129.982C117.284 129.889 117.415 129.842 117.583 129.842C117.751 129.842 117.882 129.889 117.975 129.982C118.068 130.075 118.115 130.206 118.115 130.374V130.99C118.386 130.598 118.731 130.295 119.151 130.08C119.571 129.865 120.024 129.758 120.509 129.758Z" fill="black"/>
<path fill-rule="evenodd" clip-rule="evenodd" d="M84.7815 133.039L80.7815 128.039C80.4365 127.607 79.8065 127.538 79.3765 127.883C78.9445 128.227 78.8745 128.857 79.2195 129.288L81.9205 132.664H73.0005C72.4495 132.664 72.0005 132.215 72.0005 131.664V126.664C72.0005 126.111 71.5525 125.664 71.0005 125.664C70.4485 125.664 70.0005 126.111 70.0005 126.664V131.664C70.0005 133.318 71.3465 134.664 73.0005 134.664H81.9205L79.2195 138.039C78.8745 138.47 78.9445 139.1 79.3765 139.444C79.5605 139.592 79.7815 139.664 80.0005 139.664C80.2935 139.664 80.5845 139.535 80.7815 139.288L84.7815 134.288C85.0735 133.923 85.0735 133.404 84.7815 133.039" fill="url(#paint1_linear_1259_1891)"/>
</g>
<defs>
<filter id="filter0_d_1259_1891" x="0" y="0" width="379" height="224" filterUnits="userSpaceOnUse" color-interpolation-filters="sRGB">
<feFlood flood-opacity="0" result="BackgroundImageFix"/>
<feColorMatrix in="SourceAlpha" type="matrix" values="0 0 0 0 0 0 0 0 0 0 0 0 0 0 0 0 0 0 127 0" result="hardAlpha"/>
<feOffset dy="4"/>
<feGaussianBlur stdDeviation="25"/>
<feColorMatrix type="matrix" values="0 0 0 0 0 0 0 0 0 0 0 0 0 0 0 0 0 0 0.2 0"/>
<feBlend mode="normal" in2="BackgroundImageFix" result="effect1_dropShadow_1259_1891"/>
<feBlend mode="normal" in="SourceGraphic" in2="effect1_dropShadow_1259_1891" result="shape"/>
</filter>
<linearGradient id="paint0_linear_1259_1891" x1="211.766" y1="46.686" x2="211.553" y2="13.136" gradientUnits="userSpaceOnUse">
<stop stop-color="#E5E5E5" stop-opacity="0.68"/>
<stop offset="1" stop-color="white"/>
</linearGradient>
<linearGradient id="paint1_linear_1259_1891" x1="77.5005" y1="125.664" x2="77.5005" y2="139.664" gradientUnits="userSpaceOnUse">
<stop stop-color="#9FFFC7"/>
<stop offset="1" stop-color="#017849"/>
</linearGradient>
</defs>
</svg>
