<svg width="36" height="30" viewBox="0 0 36 30" fill="none" xmlns="http://www.w3.org/2000/svg">
<g filter="url(#filter0_d_4319_32126)">
<rect x="2" width="32" height="24" rx="8" fill="white"/>
<path fill-rule="evenodd" clip-rule="evenodd" d="M20.6663 14.6667C20.6663 15.0334 20.3663 15.3334 19.9997 15.3334C19.633 15.3334 19.333 15.0334 19.333 14.6667V12C19.333 11.6334 19.633 11.3334 19.9997 11.3334C20.3663 11.3334 20.6663 11.6334 20.6663 12V14.6667ZM16.6663 6.88537C16.6663 6.78204 16.809 6.66671 16.9997 6.66671H18.9997C19.1903 6.66671 19.333 6.78204 19.333 6.88537V8.00004H16.6663V6.88537ZM16.6663 14.6667C16.6663 15.0334 16.3663 15.3334 15.9997 15.3334C15.633 15.3334 15.333 15.0334 15.333 14.6667V12C15.333 11.6334 15.633 11.3334 15.9997 11.3334C16.3663 11.3334 16.6663 11.6334 16.6663 12V14.6667ZM23.9997 8.00004H23.333H20.6663V6.88537C20.6663 6.02937 19.919 5.33337 18.9997 5.33337H16.9997C16.0803 5.33337 15.333 6.02937 15.333 6.88537V8.00004H12.6663H11.9997C11.633 8.00004 11.333 8.30004 11.333 8.66671C11.333 9.03337 11.633 9.33337 11.9997 9.33337H12.6663V16.6667C12.6663 17.7694 13.5637 18.6667 14.6663 18.6667H21.333C22.4357 18.6667 23.333 17.7694 23.333 16.6667V9.33337H23.9997C24.3663 9.33337 24.6663 9.03337 24.6663 8.66671C24.6663 8.30004 24.3663 8.00004 23.9997 8.00004Z" fill="#EB5757"/>
<rect x="2.5" y="0.5" width="31" height="23" rx="7.5" stroke="#EB5757"/>
</g>
<defs>
<filter id="filter0_d_4319_32126" x="0" y="0" width="36" height="30" filterUnits="userSpaceOnUse" color-interpolation-filters="sRGB">
<feFlood flood-opacity="0" result="BackgroundImageFix"/>
<feColorMatrix in="SourceAlpha" type="matrix" values="0 0 0 0 0 0 0 0 0 0 0 0 0 0 0 0 0 0 127 0" result="hardAlpha"/>
<feOffset dy="4"/>
<feGaussianBlur stdDeviation="1"/>
<feColorMatrix type="matrix" values="0 0 0 0 0 0 0 0 0 0 0 0 0 0 0 0 0 0 0.15 0"/>
<feBlend mode="normal" in2="BackgroundImageFix" result="effect1_dropShadow_4319_32126"/>
<feBlend mode="normal" in="SourceGraphic" in2="effect1_dropShadow_4319_32126" result="shape"/>
</filter>
</defs>
</svg>
