<svg width="25" height="28" viewBox="0 0 25 28" fill="none" xmlns="http://www.w3.org/2000/svg">
<path d="M10.6667 0.666626C16.0907 0.666626 20.568 4.71463 21.2453 9.95329L24.2453 14.672C24.4427 14.9826 24.4027 15.4453 23.9453 15.6426L21.3333 16.76V20.6666C21.3333 22.14 20.14 23.3333 18.6667 23.3333H16.0013L16 27.3333H4V22.408C4 20.8346 3.41867 19.3453 2.34133 18.0013C0.876 16.1746 0 13.856 0 11.3333C0 5.44263 4.776 0.666626 10.6667 0.666626ZM9.96 8.35063C9.048 7.43863 7.57067 7.43863 6.66 8.35063C5.748 9.26129 5.748 10.7386 6.66 11.6493L10.6667 15.6573L14.6733 11.6493C15.5853 10.7386 15.5853 9.26129 14.6733 8.35063C13.7627 7.43863 12.2853 7.43863 11.3733 8.35063L10.6667 9.05729L9.96 8.35063Z" fill="#00995D"/>
</svg>
