<svg width="29" height="45" viewBox="0 0 29 45" fill="none" xmlns="http://www.w3.org/2000/svg">
<path d="M2.52146 10.027C3.55173 10.027 4.85313 11.2442 6.45276 13.6516C10.7636 18.791 13.3665 22.0369 14.2883 23.3623H14.4238C15.1559 22.632 18.5992 18.3852 24.7808 10.6491C25.079 10.3786 25.6213 10.1622 26.4075 10.027C28.0072 10.4057 28.8206 11.136 28.8206 12.1639V12.9213C28.8206 13.4352 27.3023 15.4639 24.2928 18.9803L17.596 27.4197C25.079 36.4001 28.8477 41.1067 28.8477 41.5124V42.2698C28.8477 43.5141 28.0343 44.2714 26.4347 44.5419H26.3262C25.3502 44.5419 24.2385 43.5682 23.0185 41.6477L14.4509 31.1796C7.69994 39.5649 4.17532 43.8927 3.82286 44.1362C3.41617 44.3796 2.98237 44.5149 2.54857 44.5149H2.44012C1.0845 44.5149 0.298239 43.6223 0.0271141 41.864C0.0271141 41.2149 1.62674 39.0509 4.82602 35.4534L11.2517 27.2574L0.244011 13.5434L0 12.5155C0.352462 10.8385 1.19295 10.027 2.52146 10.027Z" fill="#00995D"/>
<path d="M19.3581 5.04996C19.3581 7.72785 17.1891 9.89179 14.505 9.89179C11.8209 9.89179 9.65186 7.72785 9.65186 5.04996C9.65186 2.37208 11.8209 0.20813 14.505 0.20813C17.1891 0.20813 19.3581 2.37208 19.3581 5.04996Z" fill="#00995D"/>
</svg>
