<svg width="15" height="15" viewBox="0 0 15 15" fill="none" xmlns="http://www.w3.org/2000/svg">
<path fill-rule="evenodd" clip-rule="evenodd" d="M14.7815 8.03857L10.7815 3.03857C10.4365 2.60657 9.80649 2.53757 9.37649 2.88257C8.94449 3.22657 8.87449 3.85657 9.21949 4.28757L11.9205 7.66357H3.00049C2.44949 7.66357 2.00049 7.21457 2.00049 6.66357V1.66357C2.00049 1.11057 1.55249 0.663574 1.00049 0.663574C0.448488 0.663574 0.000488281 1.11057 0.000488281 1.66357V6.66357C0.000488281 8.31757 1.34649 9.66357 3.00049 9.66357H11.9205L9.21949 13.0386C8.87449 13.4696 8.94449 14.0996 9.37649 14.4436C9.56049 14.5916 9.78149 14.6636 10.0005 14.6636C10.2935 14.6636 10.5845 14.5346 10.7815 14.2876L14.7815 9.28757C15.0735 8.92257 15.0735 8.40357 14.7815 8.03857" fill="url(#paint0_linear_9718_20)"/>
<defs>
<linearGradient id="paint0_linear_9718_20" x1="7.50049" y1="0.663574" x2="7.50049" y2="14.6636" gradientUnits="userSpaceOnUse">
<stop stop-color="#9FFFC7"/>
<stop offset="1" stop-color="#017849"/>
</linearGradient>
</defs>
</svg>
