<svg width="14" height="14" viewBox="0 0 14 14" fill="none" xmlns="http://www.w3.org/2000/svg">
<path d="M10.3335 1.99996H13.0002C13.177 1.99996 13.3465 2.0702 13.4716 2.19522C13.5966 2.32025 13.6668 2.48981 13.6668 2.66663V13.3333C13.6668 13.5101 13.5966 13.6797 13.4716 13.8047C13.3465 13.9297 13.177 14 13.0002 14H1.00016C0.823352 14 0.653782 13.9297 0.528758 13.8047C0.403734 13.6797 0.333496 13.5101 0.333496 13.3333V2.66663C0.333496 2.48981 0.403734 2.32025 0.528758 2.19522C0.653782 2.0702 0.823352 1.99996 1.00016 1.99996H3.66683V0.666626H5.00016V1.99996H9.00016V0.666626H10.3335V1.99996ZM9.00016 3.33329H5.00016V4.66663H3.66683V3.33329H1.66683V5.99996H12.3335V3.33329H10.3335V4.66663H9.00016V3.33329ZM12.3335 7.33329H1.66683V12.6666H12.3335V7.33329Z" fill="#00995D"/>
</svg>
