<svg width="12" height="15" viewBox="0 0 12 15" fill="none" xmlns="http://www.w3.org/2000/svg">
<path d="M0.666504 14.6666C0.666504 13.2521 1.22841 11.8956 2.2286 10.8954C3.2288 9.8952 4.58535 9.33329 5.99984 9.33329C7.41432 9.33329 8.77088 9.8952 9.77107 10.8954C10.7713 11.8956 11.3332 13.2521 11.3332 14.6666H9.99984C9.99984 13.6058 9.57841 12.5883 8.82826 11.8382C8.07812 11.0881 7.0607 10.6666 5.99984 10.6666C4.93897 10.6666 3.92156 11.0881 3.17141 11.8382C2.42126 12.5883 1.99984 13.6058 1.99984 14.6666H0.666504ZM5.99984 8.66663C3.78984 8.66663 1.99984 6.87663 1.99984 4.66663C1.99984 2.45663 3.78984 0.666626 5.99984 0.666626C8.20984 0.666626 9.99984 2.45663 9.99984 4.66663C9.99984 6.87663 8.20984 8.66663 5.99984 8.66663ZM5.99984 7.33329C7.47317 7.33329 8.6665 6.13996 8.6665 4.66663C8.6665 3.19329 7.47317 1.99996 5.99984 1.99996C4.5265 1.99996 3.33317 3.19329 3.33317 4.66663C3.33317 6.13996 4.5265 7.33329 5.99984 7.33329Z" fill="#00995D"/>
</svg>
