<svg width="87" height="20" viewBox="0 0 87 20" fill="none" xmlns="http://www.w3.org/2000/svg">
<path d="M6.7225 19.24C5.2025 19.24 3.8505 18.92 2.6665 18.28C1.4985 17.624 0.6585 16.744 0.1465 15.64C0.0825 15.528 0.0505001 15.4 0.0505001 15.256C0.0505001 15.032 0.1305 14.848 0.2905 14.704C0.4665 14.544 0.6985 14.464 0.9865 14.464C1.1785 14.464 1.3545 14.52 1.5145 14.632C1.6905 14.728 1.8185 14.872 1.8985 15.064C2.2665 15.784 2.8745 16.368 3.7225 16.816C4.5865 17.248 5.5865 17.464 6.7225 17.464C8.0345 17.464 9.0905 17.152 9.8905 16.528C10.6905 15.888 11.0905 15 11.0905 13.864C11.0905 12.856 10.7145 12.008 9.9625 11.32C9.2265 10.632 8.1145 10.192 6.6265 10C4.7705 9.776 3.3065 9.2 2.2345 8.272C1.1785 7.328 0.6505 6.176 0.6505 4.816C0.6505 3.856 0.9065 3.016 1.4185 2.296C1.9465 1.56 2.6665 0.999999 3.5785 0.615999C4.5065 0.216 5.5545 0.0159998 6.7225 0.0159998C7.9865 0.0159998 9.0985 0.296 10.0585 0.855999C11.0185 1.416 11.7705 2.144 12.3145 3.04C12.4265 3.216 12.4825 3.408 12.4825 3.616C12.4825 3.92 12.3385 4.16 12.0505 4.336C11.9225 4.4 11.7785 4.432 11.6185 4.432C11.4425 4.432 11.2745 4.392 11.1145 4.312C10.9705 4.216 10.8505 4.088 10.7545 3.928C9.8585 2.52 8.5065 1.808 6.6985 1.792C5.4025 1.792 4.3785 2.064 3.6265 2.608C2.8745 3.152 2.4985 3.928 2.4985 4.936C2.4985 6.808 4.0105 7.944 7.0345 8.344C9.0185 8.632 10.4985 9.24 11.4745 10.168C12.4505 11.096 12.9385 12.32 12.9385 13.84C12.9385 14.96 12.6665 15.928 12.1225 16.744C11.5785 17.56 10.8345 18.184 9.8905 18.616C8.9465 19.032 7.8905 19.24 6.7225 19.24ZM22.2051 5.752C23.3891 5.752 24.4371 6.032 25.3491 6.592C26.2611 7.136 26.9651 7.896 27.4611 8.872C27.9731 9.848 28.2291 10.96 28.2291 12.208C28.2291 12.464 28.1491 12.672 27.9891 12.832C27.8291 12.976 27.6211 13.048 27.3651 13.048H17.6691C17.7971 14.36 18.3091 15.424 19.2051 16.24C20.1011 17.056 21.2211 17.464 22.5651 17.464C23.1411 17.464 23.7171 17.368 24.2931 17.176C24.8851 16.968 25.3571 16.712 25.7091 16.408C25.9171 16.248 26.1331 16.168 26.3571 16.168C26.5331 16.168 26.7091 16.232 26.8851 16.36C27.0931 16.552 27.1971 16.768 27.1971 17.008C27.1971 17.216 27.1091 17.4 26.9331 17.56C26.4051 18.008 25.7331 18.384 24.9171 18.688C24.1011 18.976 23.3171 19.12 22.5651 19.12C21.2851 19.12 20.1411 18.84 19.1331 18.28C18.1251 17.704 17.3331 16.912 16.7571 15.904C16.1971 14.88 15.9171 13.728 15.9171 12.448C15.9171 11.152 16.1811 10 16.7091 8.992C17.2531 7.968 17.9971 7.176 18.9411 6.616C19.9011 6.04 20.9891 5.752 22.2051 5.752ZM22.2051 7.408C20.9891 7.408 19.9811 7.784 19.1811 8.536C18.3811 9.288 17.8931 10.28 17.7171 11.512H26.5011C26.3731 10.28 25.9251 9.288 25.1571 8.536C24.3891 7.784 23.4051 7.408 22.2051 7.408ZM35.9393 19.12C34.9473 19.12 33.9953 18.952 33.0833 18.616C32.1713 18.28 31.4353 17.808 30.8753 17.2C30.7153 17.008 30.6353 16.824 30.6353 16.648C30.6353 16.376 30.7633 16.136 31.0193 15.928C31.2113 15.784 31.4113 15.712 31.6193 15.712C31.8913 15.712 32.1233 15.824 32.3153 16.048C32.6993 16.496 33.2033 16.84 33.8273 17.08C34.4673 17.32 35.1713 17.44 35.9393 17.44C37.0593 17.44 37.8993 17.248 38.4593 16.864C39.0193 16.48 39.3073 15.976 39.3233 15.352C39.3233 14.776 39.0433 14.296 38.4833 13.912C37.9233 13.528 37.0353 13.24 35.8193 13.048C34.2513 12.792 33.0753 12.352 32.2913 11.728C31.5233 11.088 31.1393 10.32 31.1393 9.424C31.1393 8.256 31.5873 7.352 32.4833 6.712C33.3953 6.072 34.5313 5.752 35.8913 5.752C36.9473 5.752 37.8673 5.936 38.6513 6.304C39.4353 6.656 40.0673 7.152 40.5473 7.792C40.6753 8 40.7393 8.184 40.7393 8.344C40.7393 8.616 40.6113 8.832 40.3553 8.992C40.2433 9.072 40.0913 9.112 39.8993 9.112C39.5633 9.112 39.2833 8.992 39.0593 8.752C38.2753 7.856 37.2033 7.408 35.8433 7.408C34.9633 7.408 34.2593 7.592 33.7313 7.96C33.2033 8.312 32.9393 8.76 32.9393 9.304C32.9393 9.88 33.1873 10.344 33.6833 10.696C34.1793 11.032 35.0593 11.304 36.3233 11.512C38.0353 11.8 39.2593 12.272 39.9953 12.928C40.7313 13.568 41.0993 14.368 41.0993 15.328C41.0993 16.064 40.8753 16.72 40.4273 17.296C39.9953 17.872 39.3873 18.32 38.6033 18.64C37.8193 18.96 36.9313 19.12 35.9393 19.12ZM48.8768 19.12C47.8848 19.12 46.9328 18.952 46.0208 18.616C45.1088 18.28 44.3728 17.808 43.8128 17.2C43.6528 17.008 43.5728 16.824 43.5728 16.648C43.5728 16.376 43.7008 16.136 43.9568 15.928C44.1488 15.784 44.3488 15.712 44.5568 15.712C44.8288 15.712 45.0608 15.824 45.2528 16.048C45.6368 16.496 46.1408 16.84 46.7648 17.08C47.4048 17.32 48.1088 17.44 48.8768 17.44C49.9968 17.44 50.8368 17.248 51.3968 16.864C51.9568 16.48 52.2448 15.976 52.2608 15.352C52.2608 14.776 51.9808 14.296 51.4208 13.912C50.8608 13.528 49.9728 13.24 48.7568 13.048C47.1888 12.792 46.0128 12.352 45.2288 11.728C44.4608 11.088 44.0768 10.32 44.0768 9.424C44.0768 8.256 44.5248 7.352 45.4208 6.712C46.3328 6.072 47.4688 5.752 48.8288 5.752C49.8848 5.752 50.8048 5.936 51.5888 6.304C52.3728 6.656 53.0048 7.152 53.4848 7.792C53.6128 8 53.6768 8.184 53.6768 8.344C53.6768 8.616 53.5488 8.832 53.2928 8.992C53.1808 9.072 53.0288 9.112 52.8368 9.112C52.5008 9.112 52.2208 8.992 51.9968 8.752C51.2128 7.856 50.1408 7.408 48.7808 7.408C47.9008 7.408 47.1968 7.592 46.6688 7.96C46.1408 8.312 45.8768 8.76 45.8768 9.304C45.8768 9.88 46.1248 10.344 46.6208 10.696C47.1168 11.032 47.9968 11.304 49.2608 11.512C50.9728 11.8 52.1968 12.272 52.9328 12.928C53.6688 13.568 54.0368 14.368 54.0368 15.328C54.0368 16.064 53.8128 16.72 53.3648 17.296C52.9328 17.872 52.3248 18.32 51.5408 18.64C50.7568 18.96 49.8688 19.12 48.8768 19.12ZM63.2063 5.752C64.4543 5.752 65.5823 6.048 66.5903 6.64C67.6143 7.216 68.4143 8.016 68.9903 9.04C69.5823 10.064 69.8783 11.2 69.8783 12.448V18.088C69.8783 18.344 69.7903 18.56 69.6143 18.736C69.4383 18.912 69.2143 19 68.9423 19C68.6703 19 68.4463 18.92 68.2703 18.76C68.0943 18.584 68.0063 18.36 68.0063 18.088V16.648C67.4463 17.416 66.7343 18.024 65.8703 18.472C65.0063 18.904 64.0543 19.12 63.0143 19.12C61.7983 19.12 60.6943 18.832 59.7023 18.256C58.7263 17.664 57.9503 16.864 57.3743 15.856C56.8143 14.832 56.5343 13.696 56.5343 12.448C56.5343 11.2 56.8223 10.064 57.3983 9.04C57.9903 8.016 58.7903 7.216 59.7983 6.64C60.8223 6.048 61.9583 5.752 63.2063 5.752ZM63.2063 17.44C64.1183 17.44 64.9423 17.224 65.6783 16.792C66.4143 16.36 66.9903 15.768 67.4063 15.016C67.8383 14.248 68.0543 13.392 68.0543 12.448C68.0543 11.504 67.8383 10.656 67.4063 9.904C66.9903 9.136 66.4143 8.536 65.6783 8.104C64.9423 7.656 64.1183 7.432 63.2063 7.432C62.2943 7.432 61.4623 7.656 60.7103 8.104C59.9743 8.536 59.3903 9.136 58.9583 9.904C58.5423 10.656 58.3343 11.504 58.3343 12.448C58.3343 13.392 58.5423 14.248 58.9583 15.016C59.3903 15.768 59.9743 16.36 60.7103 16.792C61.4623 17.224 62.2943 17.44 63.2063 17.44ZM65.7263 3.952C65.2783 3.952 64.8783 3.88 64.5263 3.736C64.1743 3.592 63.7983 3.4 63.3983 3.16C63.0623 2.952 62.7903 2.808 62.5823 2.728C62.3743 2.648 62.1663 2.608 61.9583 2.608C61.3663 2.608 60.8383 2.888 60.3743 3.448C60.2783 3.592 60.1583 3.704 60.0143 3.784C59.8703 3.864 59.7263 3.904 59.5823 3.904C59.4383 3.904 59.3023 3.864 59.1743 3.784C59.0623 3.72 58.9663 3.632 58.8863 3.52C58.8223 3.392 58.7903 3.264 58.7903 3.136C58.7903 2.944 58.8463 2.768 58.9583 2.608C59.3583 2.096 59.8223 1.704 60.3503 1.432C60.8783 1.144 61.4303 0.999999 62.0063 0.999999C62.4383 0.999999 62.8143 1.064 63.1343 1.192C63.4543 1.32 63.8223 1.512 64.2383 1.768C64.6063 1.992 64.8783 2.144 65.0543 2.224C65.2463 2.304 65.4623 2.344 65.7023 2.344C66.1983 2.344 66.5903 2.184 66.8783 1.864C67.1183 1.592 67.3663 1.456 67.6223 1.456C67.7503 1.456 67.8783 1.496 68.0063 1.576C68.2943 1.72 68.4383 1.944 68.4383 2.248C68.4383 2.424 68.3743 2.6 68.2463 2.776C67.6063 3.56 66.7663 3.952 65.7263 3.952ZM79.4485 19.12C78.1845 19.12 77.0405 18.832 76.0165 18.256C75.0085 17.68 74.2165 16.888 73.6405 15.88C73.0645 14.856 72.7765 13.712 72.7765 12.448C72.7765 11.184 73.0645 10.04 73.6405 9.016C74.2165 7.992 75.0085 7.192 76.0165 6.616C77.0405 6.04 78.1845 5.752 79.4485 5.752C80.7125 5.752 81.8485 6.04 82.8565 6.616C83.8645 7.192 84.6565 7.992 85.2325 9.016C85.8245 10.04 86.1205 11.184 86.1205 12.448C86.1205 13.712 85.8325 14.856 85.2565 15.88C84.6805 16.888 83.8805 17.68 82.8565 18.256C81.8485 18.832 80.7125 19.12 79.4485 19.12ZM79.4485 17.44C80.3765 17.44 81.2085 17.224 81.9445 16.792C82.6805 16.36 83.2565 15.768 83.6725 15.016C84.0885 14.248 84.2965 13.392 84.2965 12.448C84.2965 11.488 84.0885 10.632 83.6725 9.88C83.2565 9.112 82.6805 8.512 81.9445 8.08C81.2085 7.648 80.3765 7.432 79.4485 7.432C78.5365 7.432 77.7045 7.648 76.9525 8.08C76.2165 8.512 75.6325 9.112 75.2005 9.88C74.7845 10.632 74.5765 11.488 74.5765 12.448C74.5765 13.392 74.7845 14.248 75.2005 15.016C75.6325 15.768 76.2165 16.36 76.9525 16.792C77.7045 17.224 78.5365 17.44 79.4485 17.44Z" fill="#4F4F4F"/>
</svg>
