<svg width="440" height="631" viewBox="0 0 440 631" fill="none" xmlns="http://www.w3.org/2000/svg">
<path d="M-40.4113 0.679443C-21.6104 0.679443 2.13802 22.8918 31.3288 66.8228C109.996 160.608 157.493 219.841 174.314 244.028H176.788C190.147 230.7 252.981 153.204 365.786 12.0324C371.228 7.09633 381.124 3.14748 395.472 0.679443C424.662 7.58994 439.505 20.9173 439.505 39.6744V53.4954C439.505 62.8739 411.799 99.8945 356.881 164.063L234.675 318.069C371.228 481.946 440 567.834 440 575.238V589.059C440 611.765 425.157 625.586 395.966 630.522H393.987C376.176 630.522 355.891 612.752 333.627 577.706L177.283 386.68C54.0878 539.699 -10.2309 618.676 -16.6627 623.118C-24.0841 627.561 -32.0003 630.029 -39.9165 630.029H-41.8955C-66.6335 630.029 -80.9814 613.74 -85.929 581.655C-85.929 569.809 -56.7383 530.32 1.64326 464.67L118.901 315.107L-81.971 64.8484L-86.4238 46.0913C-79.992 15.4876 -64.6545 0.679443 -40.4113 0.679443Z" fill="url(#paint0_linear_1220_1800)"/>
<defs>
<linearGradient id="paint0_linear_1220_1800" x1="313.141" y1="507.659" x2="299.878" y2="143.797" gradientUnits="userSpaceOnUse">
<stop stop-color="#E5E5E5" stop-opacity="0.68"/>
<stop offset="1" stop-color="white"/>
</linearGradient>
</defs>
</svg>
