<svg width="25" height="28" viewBox="0 0 25 28" fill="none" xmlns="http://www.w3.org/2000/svg">
<path d="M10.6667 0.666626C16.0907 0.666626 20.568 4.71463 21.2453 9.95329L24.2453 14.672C24.4427 14.9826 24.4027 15.4453 23.9453 15.6426L21.3333 16.76V20.6666C21.3333 22.14 20.14 23.3333 18.6667 23.3333H16.0013L16 27.3333H4V22.408C4 20.8346 3.41867 19.3453 2.34133 18.0013C0.876 16.1746 0 13.856 0 11.3333C0 5.44263 4.776 0.666626 10.6667 0.666626ZM10.6667 3.33329C6.248 3.33329 2.66667 6.91463 2.66667 11.3333C2.66667 13.18 3.29067 14.924 4.42133 16.3333C5.88 18.152 6.66667 20.2226 6.66667 22.408V24.6666H13.3333L13.336 20.6666H18.6667V15.0026L20.7333 14.1173L18.676 10.884L18.6 10.2946C18.088 6.33463 14.6987 3.33329 10.6667 3.33329ZM9.96 8.35063L10.6667 9.05729L11.3733 8.35063C12.2853 7.43863 13.7627 7.43863 14.6733 8.35063C15.5853 9.26129 15.5853 10.7386 14.6733 11.6493L10.6667 15.6573L6.66 11.6493C5.748 10.7386 5.748 9.26129 6.66 8.35063C7.57067 7.43863 9.048 7.43863 9.96 8.35063Z" fill="white"/>
</svg>
